<svg xmlns="http://www.w3.org/2000/svg" viewBox="0 0 800 450" preserveAspectRatio="xMidYMid slice">
<defs><linearGradient id="s" x1="0" y1="0" x2="0" y2="1">
<stop offset="0" stop-color="#ffd9a8"/><stop offset="1" stop-color="#e07b52"/>
</linearGradient></defs>
<rect width="800" height="450" fill="url(#s)"/>
<circle cx="475.6023096293211" cy="130" r="114.4" fill="#ffe4ad" opacity="0.35"/>
<circle cx="475.6023096293211" cy="130" r="44" fill="#fff1cf"/>
<path d="M478.463208694011 137.23147972952574 q 5.6038463992998 -4.9033655993873255 11.2076927985996 0 q 5.6038463992998 -4.9033655993873255 11.2076927985996 0" stroke="#5e3324" stroke-width="3" fill="none" stroke-linecap="round"/><path d="M463.4412122378126 113.27443531248719 q 7.615181182324886 -6.6632835345342745 15.230362364649771 0 q 7.615181182324886 -6.6632835345342745 15.230362364649771 0" stroke="#5e3324" stroke-width="3" fill="none" stroke-linecap="round"/><path d="M413.19448796100914 138.23574953712523 q 7.078551187179983 -6.193732288782485 14.157102374359965 0 q 7.078551187179983 -6.193732288782485 14.157102374359965 0" stroke="#5e3324" stroke-width="3" fill="none" stroke-linecap="round"/>
<rect x="20" y="205" width="62" height="195" fill="#38455a"/><rect x="27" y="217" width="6" height="9" fill="#ffd9a0" opacity="0.8"/><rect x="59" y="217" width="6" height="9" fill="#ffd9a0" opacity="0.8"/><rect x="27" y="239" width="6" height="9" fill="#ffd9a0" opacity="0.8"/><rect x="43" y="239" width="6" height="9" fill="#ffd9a0" opacity="0.8"/><rect x="59" y="239" width="6" height="9" fill="#ffd9a0" opacity="0.8"/><rect x="59" y="261" width="6" height="9" fill="#ffd9a0" opacity="0.8"/><rect x="27" y="283" width="6" height="9" fill="#ffd9a0" opacity="0.8"/><rect x="59" y="283" width="6" height="9" fill="#ffd9a0" opacity="0.8"/><rect x="27" y="305" width="6" height="9" fill="#ffd9a0" opacity="0.8"/><rect x="59" y="305" width="6" height="9" fill="#ffd9a0" opacity="0.8"/><rect x="43" y="327" width="6" height="9" fill="#ffd9a0" opacity="0.8"/><rect x="59" y="327" width="6" height="9" fill="#ffd9a0" opacity="0.8"/><rect x="27" y="349" width="6" height="9" fill="#ffd9a0" opacity="0.8"/><rect x="43" y="349" width="6" height="9" fill="#ffd9a0" opacity="0.8"/><rect x="43" y="371" width="6" height="9" fill="#ffd9a0" opacity="0.8"/><rect x="59" y="371" width="6" height="9" fill="#ffd9a0" opacity="0.8"/><rect x="115" y="221" width="86" height="179" fill="#38455a"/><rect x="154" y="233" width="6" height="9" fill="#ffd9a0" opacity="0.8"/><rect x="170" y="255" width="6" height="9" fill="#ffd9a0" opacity="0.8"/><rect x="186" y="255" width="6" height="9" fill="#ffd9a0" opacity="0.8"/><rect x="122" y="277" width="6" height="9" fill="#ffd9a0" opacity="0.8"/><rect x="170" y="277" width="6" height="9" fill="#ffd9a0" opacity="0.8"/><rect x="186" y="277" width="6" height="9" fill="#ffd9a0" opacity="0.8"/><rect x="138" y="299" width="6" height="9" fill="#ffd9a0" opacity="0.8"/><rect x="170" y="299" width="6" height="9" fill="#ffd9a0" opacity="0.8"/><rect x="122" y="321" width="6" height="9" fill="#ffd9a0" opacity="0.8"/><rect x="154" y="321" width="6" height="9" fill="#ffd9a0" opacity="0.8"/><rect x="186" y="321" width="6" height="9" fill="#ffd9a0" opacity="0.8"/><rect x="122" y="343" width="6" height="9" fill="#ffd9a0" opacity="0.8"/><rect x="138" y="343" width="6" height="9" fill="#ffd9a0" opacity="0.8"/><rect x="138" y="365" width="6" height="9" fill="#ffd9a0" opacity="0.8"/><rect x="154" y="365" width="6" height="9" fill="#ffd9a0" opacity="0.8"/><rect x="122" y="387" width="6" height="9" fill="#ffd9a0" opacity="0.8"/><rect x="138" y="387" width="6" height="9" fill="#ffd9a0" opacity="0.8"/><rect x="154" y="387" width="6" height="9" fill="#ffd9a0" opacity="0.8"/><rect x="170" y="387" width="6" height="9" fill="#ffd9a0" opacity="0.8"/><rect x="227" y="298" width="40" height="102" fill="#38455a"/><rect x="278" y="245" width="39" height="155" fill="#38455a"/><rect x="301" y="257" width="6" height="9" fill="#ffd9a0" opacity="0.8"/><rect x="285" y="279" width="6" height="9" fill="#ffd9a0" opacity="0.8"/><rect x="285" y="323" width="6" height="9" fill="#ffd9a0" opacity="0.8"/><rect x="301" y="323" width="6" height="9" fill="#ffd9a0" opacity="0.8"/><rect x="285" y="345" width="6" height="9" fill="#ffd9a0" opacity="0.8"/><rect x="301" y="345" width="6" height="9" fill="#ffd9a0" opacity="0.8"/><rect x="301" y="367" width="6" height="9" fill="#ffd9a0" opacity="0.8"/><rect x="349" y="240" width="68" height="160" fill="#38455a"/><rect x="372" y="252" width="6" height="9" fill="#ffd9a0" opacity="0.8"/><rect x="388" y="252" width="6" height="9" fill="#ffd9a0" opacity="0.8"/><rect x="356" y="274" width="6" height="9" fill="#ffd9a0" opacity="0.8"/><rect x="372" y="274" width="6" height="9" fill="#ffd9a0" opacity="0.8"/><rect x="388" y="274" width="6" height="9" fill="#ffd9a0" opacity="0.8"/><rect x="388" y="296" width="6" height="9" fill="#ffd9a0" opacity="0.8"/><rect x="404" y="296" width="6" height="9" fill="#ffd9a0" opacity="0.8"/><rect x="356" y="318" width="6" height="9" fill="#ffd9a0" opacity="0.8"/><rect x="372" y="318" width="6" height="9" fill="#ffd9a0" opacity="0.8"/><rect x="388" y="318" width="6" height="9" fill="#ffd9a0" opacity="0.8"/><rect x="404" y="318" width="6" height="9" fill="#ffd9a0" opacity="0.8"/><rect x="356" y="340" width="6" height="9" fill="#ffd9a0" opacity="0.8"/><rect x="388" y="340" width="6" height="9" fill="#ffd9a0" opacity="0.8"/><rect x="356" y="362" width="6" height="9" fill="#ffd9a0" opacity="0.8"/><rect x="356" y="384" width="6" height="9" fill="#ffd9a0" opacity="0.8"/><rect x="372" y="384" width="6" height="9" fill="#ffd9a0" opacity="0.8"/><rect x="388" y="384" width="6" height="9" fill="#ffd9a0" opacity="0.8"/><rect x="435" y="205" width="39" height="195" fill="#38455a"/><rect x="458" y="239" width="6" height="9" fill="#ffd9a0" opacity="0.8"/><rect x="458" y="283" width="6" height="9" fill="#ffd9a0" opacity="0.8"/><rect x="458" y="305" width="6" height="9" fill="#ffd9a0" opacity="0.8"/><rect x="442" y="327" width="6" height="9" fill="#ffd9a0" opacity="0.8"/><rect x="458" y="349" width="6" height="9" fill="#ffd9a0" opacity="0.8"/><rect x="458" y="371" width="6" height="9" fill="#ffd9a0" opacity="0.8"/><rect x="507" y="211" width="77" height="189" fill="#38455a"/><rect x="610" y="338" width="70" height="62" fill="#38455a"/><rect x="633" y="350" width="6" height="9" fill="#ffd9a0" opacity="0.8"/><rect x="649" y="350" width="6" height="9" fill="#ffd9a0" opacity="0.8"/><rect x="665" y="350" width="6" height="9" fill="#ffd9a0" opacity="0.8"/><rect x="617" y="372" width="6" height="9" fill="#ffd9a0" opacity="0.8"/><rect x="649" y="372" width="6" height="9" fill="#ffd9a0" opacity="0.8"/><rect x="665" y="372" width="6" height="9" fill="#ffd9a0" opacity="0.8"/><rect x="690" y="201" width="62" height="199" fill="#38455a"/><rect x="697" y="213" width="6" height="9" fill="#ffd9a0" opacity="0.8"/><rect x="713" y="213" width="6" height="9" fill="#ffd9a0" opacity="0.8"/><rect x="729" y="235" width="6" height="9" fill="#ffd9a0" opacity="0.8"/><rect x="697" y="257" width="6" height="9" fill="#ffd9a0" opacity="0.8"/><rect x="697" y="279" width="6" height="9" fill="#ffd9a0" opacity="0.8"/><rect x="713" y="279" width="6" height="9" fill="#ffd9a0" opacity="0.8"/><rect x="729" y="279" width="6" height="9" fill="#ffd9a0" opacity="0.8"/><rect x="697" y="301" width="6" height="9" fill="#ffd9a0" opacity="0.8"/><rect x="713" y="301" width="6" height="9" fill="#ffd9a0" opacity="0.8"/><rect x="729" y="301" width="6" height="9" fill="#ffd9a0" opacity="0.8"/><rect x="713" y="323" width="6" height="9" fill="#ffd9a0" opacity="0.8"/><rect x="729" y="323" width="6" height="9" fill="#ffd9a0" opacity="0.8"/><rect x="713" y="345" width="6" height="9" fill="#ffd9a0" opacity="0.8"/><rect x="729" y="345" width="6" height="9" fill="#ffd9a0" opacity="0.8"/><rect x="697" y="367" width="6" height="9" fill="#ffd9a0" opacity="0.8"/><rect x="713" y="367" width="6" height="9" fill="#ffd9a0" opacity="0.8"/><rect x="729" y="367" width="6" height="9" fill="#ffd9a0" opacity="0.8"/>
<rect y="400" width="800" height="50" fill="#222d3d"/>
</svg>